SplineFontDB: 3.0
FontName: GoudyBookletter1911-OpenCaps
FullName: Goudy Bookletter 1911 Open Capitals
FamilyName: Goudy Bookletter 1911
Weight: Book
Copyright: Copyright (c) 2009 Barry Schwartz\n\nPermission is hereby granted, free of charge, to any person obtaining a copy\nof this software and associated documentation files (the "Software"), to deal\nin the Software without restriction, including without limitation the rights\nto use, copy, modify, merge, publish, distribute, sublicense, and/or sell\ncopies of the Software, and to permit persons to whom the Software is\nfurnished to do so, subject to the following conditions:\n\nThe above copyright notice and this permission notice shall be included in\nall copies or substantial portions of the Software.\n\nTHE SOFTWARE IS PROVIDED "AS IS", WITHOUT WARRANTY OF ANY KIND, EXPRESS OR\nIMPLIED, INCLUDING BUT NOT LIMITED TO THE WARRANTIES OF MERCHANTABILITY,\nFITNESS FOR A PARTICULAR PURPOSE AND NONINFRINGEMENT. IN NO EVENT SHALL THE\nAUTHORS OR COPYRIGHT HOLDERS BE LIABLE FOR ANY CLAIM, DAMAGES OR OTHER\nLIABILITY, WHETHER IN AN ACTION OF CONTRACT, TORT OR OTHERWISE, ARISING FROM,\nOUT OF OR IN CONNECTION WITH THE SOFTWARE OR THE USE OR OTHER DEALINGS IN\nTHE SOFTWARE.\n
UComments: "Scaling: cut 3200-dpi samples 2000 pixels high, then scale them to 120%." 
Version: 001.000
ItalicAngle: 0
UnderlinePosition: -204
UnderlineWidth: 102
Ascent: 1838
Descent: 210
LayerCount: 3
Layer: 0 0 "Back"  1
Layer: 1 0 "Fore"  0
Layer: 2 0 "backup"  1
NeedsXUIDChange: 1
XUID: [1021 658 797806517 11473725]
FSType: 0
OS2Version: 0
OS2_WeightWidthSlopeOnly: 0
OS2_UseTypoMetrics: 1
CreationTime: 1249326201
ModificationTime: 1249451540
OS2TypoAscent: 0
OS2TypoAOffset: 1
OS2TypoDescent: 0
OS2TypoDOffset: 1
OS2TypoLinegap: 184
OS2WinAscent: 0
OS2WinAOffset: 1
OS2WinDescent: 0
OS2WinDOffset: 1
HheadAscent: 0
HheadAOffset: 1
HheadDescent: 0
HheadDOffset: 1
OS2Vendor: 'PfEd'
DEI: 91125

StartChar: b
Encoding: 98 98 1
Width: 565
VWidth: 0
Flags: MW
HStem: -36 84<340.286 714.919> 856 118<430.349 691.054> 1587 20G<271.5 291>
VStem: 12 21G 126 21G<12.5 39> 155 145<884.937 1424.8> 910 152<271.279 618.997>
LayerCount: 3
Fore
Refer: 27 66 N 1 0 0 1 0 0 2
Layer: 2
SplineSet
281 1607 m 0
 301 1607 306 1590 306 1557 c 2
 306 830 l 1
 306 830 418 974 598 974 c 0
 946 974 1062 674 1062 485 c 0
 1062 221 870 -36 522 -36 c 0
 412 -36 320 -10 261 -10 c 0
 218 -10 182 -34 148 -34 c 0
 129 -34 126 -23 126 -7 c 0
 126 171 155 299 155 1350 c 0
 155 1442 12 1461 12 1491 c 0
 12 1519 62 1528 154 1567 c 0
 204 1589 262 1607 281 1607 c 0
910 421 m 0
 910 679 721 856 523 856 c 0
 344 856 286 720 286 672 c 2
 286 233 l 2
 286 118 316 48 542 48 c 0
 777 48 910 228 910 421 c 0
EndSplineSet
EndChar

StartChar: f
Encoding: 102 102 5
Width: 565
VWidth: 0
Flags: MW
HStem: 0 92<34.4772 181.625 344.646 495.781> 849 95<34.0378 196 337 608.928> 1504 120<508.885 764.119>
VStem: 196 143<96.2256 849 942 1258.4> 800 20G
LayerCount: 3
Fore
Refer: 31 70 N 1 0 0 1 0 0 2
Layer: 2
SplineSet
496 53 m 4
 496 35 495 -5 459 -5 c 4
 452 -5 379 0 273 0 c 4
 165 0 77 -5 70 -5 c 4
 40 -5 34 17 34 41 c 4
 34 98 108 78 153 93 c 4
 193 106 196 183 196 506 c 6
 196 849 l 5
 62 849 l 6
 47 849 34 849 34 894 c 4
 34 936 47 942 62 942 c 6
 199 942 l 5
 199 994 l 6
 199 1086 209 1266 322 1415 c 4
 411 1533 537 1624 678 1624 c 4
 789 1624 820 1571 820 1532 c 4
 820 1490 785 1459 726 1459 c 4
 664 1459 636 1509 568 1509 c 4
 396 1509 334 1266 334 1009 c 6
 334 942 l 5
 583 942 l 6
 598 942 609 936 609 900 c 4
 609 855 598 849 583 849 c 6
 339 849 l 5
 338 623 337 561 337 511 c 4
 337 480 341 365 341 176 c 4
 341 86 383 91 452 87 c 4
 477 86 496 75 496 53 c 4
EndSplineSet
EndChar

StartChar: A
Encoding: 65 65 26
Width: 565
VWidth: 0
Flags: W
HStem: 606 213<205.285 376.076>
VStem: 184 213<627.285 798.076>
LayerCount: 3
Fore
SplineSet
184 713 m 4
 184 772 232 819 291 819 c 4
 350 819 397 772 397 713 c 4
 397 654 350 606 291 606 c 4
 232 606 184 654 184 713 c 4
EndSplineSet
EndChar

StartChar: B
Encoding: 66 66 27
Width: 565
VWidth: 0
Flags: W
HStem: 606 213<205.285 376.076>
VStem: 184 213<627.285 798.076>
LayerCount: 3
Fore
SplineSet
184 713 m 4
 184 772 232 819 291 819 c 4
 350 819 397 772 397 713 c 4
 397 654 350 606 291 606 c 4
 232 606 184 654 184 713 c 4
EndSplineSet
EndChar

StartChar: C
Encoding: 67 67 28
Width: 565
VWidth: 0
Flags: W
HStem: 606 213<205.285 376.076>
VStem: 184 213<627.285 798.076>
LayerCount: 3
Fore
SplineSet
184 713 m 4
 184 772 232 819 291 819 c 4
 350 819 397 772 397 713 c 4
 397 654 350 606 291 606 c 4
 232 606 184 654 184 713 c 4
EndSplineSet
EndChar

StartChar: D
Encoding: 68 68 29
Width: 565
VWidth: 0
Flags: W
HStem: 606 213<205.285 376.076>
VStem: 184 213<627.285 798.076>
LayerCount: 3
Fore
SplineSet
184 713 m 4
 184 772 232 819 291 819 c 4
 350 819 397 772 397 713 c 4
 397 654 350 606 291 606 c 4
 232 606 184 654 184 713 c 4
EndSplineSet
EndChar

StartChar: E
Encoding: 69 69 30
Width: 565
VWidth: 0
Flags: W
HStem: 606 213<205.285 376.076>
VStem: 184 213<627.285 798.076>
LayerCount: 3
Fore
SplineSet
184 713 m 4
 184 772 232 819 291 819 c 4
 350 819 397 772 397 713 c 4
 397 654 350 606 291 606 c 4
 232 606 184 654 184 713 c 4
EndSplineSet
EndChar

StartChar: F
Encoding: 70 70 31
Width: 565
VWidth: 0
Flags: W
HStem: 606 213<205.285 376.076>
VStem: 184 213<627.285 798.076>
LayerCount: 3
Fore
SplineSet
184 713 m 4
 184 772 232 819 291 819 c 4
 350 819 397 772 397 713 c 4
 397 654 350 606 291 606 c 4
 232 606 184 654 184 713 c 4
EndSplineSet
EndChar

StartChar: G
Encoding: 71 71 32
Width: 565
VWidth: 0
Flags: W
HStem: 606 213<205.285 376.076>
VStem: 184 213<627.285 798.076>
LayerCount: 3
Fore
SplineSet
184 713 m 4
 184 772 232 819 291 819 c 4
 350 819 397 772 397 713 c 4
 397 654 350 606 291 606 c 4
 232 606 184 654 184 713 c 4
EndSplineSet
EndChar

StartChar: H
Encoding: 72 72 33
Width: 565
VWidth: 0
Flags: W
HStem: 606 213<205.285 376.076>
VStem: 184 213<627.285 798.076>
LayerCount: 3
Fore
SplineSet
184 713 m 4
 184 772 232 819 291 819 c 4
 350 819 397 772 397 713 c 4
 397 654 350 606 291 606 c 4
 232 606 184 654 184 713 c 4
EndSplineSet
EndChar

StartChar: I
Encoding: 73 73 34
Width: 565
VWidth: 0
Flags: W
HStem: 606 213<205.285 376.076>
VStem: 184 213<627.285 798.076>
LayerCount: 3
Fore
SplineSet
184 713 m 4
 184 772 232 819 291 819 c 4
 350 819 397 772 397 713 c 4
 397 654 350 606 291 606 c 4
 232 606 184 654 184 713 c 4
EndSplineSet
EndChar

StartChar: J
Encoding: 74 74 35
Width: 565
VWidth: 0
Flags: W
HStem: 606 213<205.285 376.076>
VStem: 184 213<627.285 798.076>
LayerCount: 3
Fore
SplineSet
184 713 m 4
 184 772 232 819 291 819 c 4
 350 819 397 772 397 713 c 4
 397 654 350 606 291 606 c 4
 232 606 184 654 184 713 c 4
EndSplineSet
EndChar

StartChar: K
Encoding: 75 75 36
Width: 565
VWidth: 0
Flags: W
HStem: 606 213<205.285 376.076>
VStem: 184 213<627.285 798.076>
LayerCount: 3
Fore
SplineSet
184 713 m 4
 184 772 232 819 291 819 c 4
 350 819 397 772 397 713 c 4
 397 654 350 606 291 606 c 4
 232 606 184 654 184 713 c 4
EndSplineSet
EndChar

StartChar: L
Encoding: 76 76 37
Width: 565
VWidth: 0
Flags: W
HStem: 606 213<205.285 376.076>
VStem: 184 213<627.285 798.076>
LayerCount: 3
Fore
SplineSet
184 713 m 4
 184 772 232 819 291 819 c 4
 350 819 397 772 397 713 c 4
 397 654 350 606 291 606 c 4
 232 606 184 654 184 713 c 4
EndSplineSet
EndChar

StartChar: M
Encoding: 77 77 38
Width: 565
VWidth: 0
Flags: W
HStem: 606 213<205.285 376.076>
VStem: 184 213<627.285 798.076>
LayerCount: 3
Fore
SplineSet
184 713 m 4
 184 772 232 819 291 819 c 4
 350 819 397 772 397 713 c 4
 397 654 350 606 291 606 c 4
 232 606 184 654 184 713 c 4
EndSplineSet
EndChar

StartChar: N
Encoding: 78 78 39
Width: 565
VWidth: 0
Flags: W
HStem: 606 213<205.285 376.076>
VStem: 184 213<627.285 798.076>
LayerCount: 3
Fore
SplineSet
184 713 m 4
 184 772 232 819 291 819 c 4
 350 819 397 772 397 713 c 4
 397 654 350 606 291 606 c 4
 232 606 184 654 184 713 c 4
EndSplineSet
EndChar

StartChar: O
Encoding: 79 79 40
Width: 565
VWidth: 0
Flags: W
HStem: 606 213<205.285 376.076>
VStem: 184 213<627.285 798.076>
LayerCount: 3
Fore
SplineSet
184 713 m 4
 184 772 232 819 291 819 c 4
 350 819 397 772 397 713 c 4
 397 654 350 606 291 606 c 4
 232 606 184 654 184 713 c 4
EndSplineSet
EndChar

StartChar: P
Encoding: 80 80 41
Width: 565
VWidth: 0
Flags: W
HStem: 606 213<205.285 376.076>
VStem: 184 213<627.285 798.076>
LayerCount: 3
Fore
SplineSet
184 713 m 4
 184 772 232 819 291 819 c 4
 350 819 397 772 397 713 c 4
 397 654 350 606 291 606 c 4
 232 606 184 654 184 713 c 4
EndSplineSet
EndChar

StartChar: Q
Encoding: 81 81 42
Width: 565
VWidth: 0
Flags: W
HStem: 606 213<205.285 376.076>
VStem: 184 213<627.285 798.076>
LayerCount: 3
Fore
SplineSet
184 713 m 4
 184 772 232 819 291 819 c 4
 350 819 397 772 397 713 c 4
 397 654 350 606 291 606 c 4
 232 606 184 654 184 713 c 4
EndSplineSet
EndChar

StartChar: R
Encoding: 82 82 43
Width: 565
VWidth: 0
Flags: W
HStem: 606 213<205.285 376.076>
VStem: 184 213<627.285 798.076>
LayerCount: 3
Fore
SplineSet
184 713 m 4
 184 772 232 819 291 819 c 4
 350 819 397 772 397 713 c 4
 397 654 350 606 291 606 c 4
 232 606 184 654 184 713 c 4
EndSplineSet
EndChar

StartChar: S
Encoding: 83 83 44
Width: 1104
VWidth: 1000
Flags: HW
HStem: -64.7998 98.3994<515.162 891.214> 1629.6 79.2002<880.946 983.709> 1760.4 72<411.638 713.718>
VStem: 108 40.7998<1238.86 1516.29> 187.2 100.8<1297.6 1643.57> 981.6 67.2002<1470.27 1639.2> 1092 45.5996<342.307 600.246> 1188 87.5996<315.755 707.123>
LayerCount: 3
Fore
SplineSet
252 1685 m 1
 252 1685 149 1626 149 1382 c 0
 149 877 727 986 1020 744 c 0
 1096 680 1138 599 1138 498 c 0
 1138 343 1062 200 1062 200 c 1
 1062 200 1188 296 1188 529 c 0
 1188 833 909 900 698 977 c 0
 450 1067 187 1076 187 1468 c 0
 187 1606 252 1685 252 1685 c 1
984 1639 m 1
 977 1632 968 1630 960 1630 c 0
 925 1630 911 1663 694 1752 c 1
 785 1697 914 1625 986 1469 c 1
 982 1500 982 1536 982 1567 c 0
 982 1591 983 1614 984 1639 c 1
197 454 m 1
 165 249 l 1
 218.93421057 237.442669164 188.31984429 233.121388679 358 82 c 1
 273 198 205 329 197 454 c 1
108 1366 m 0
 108 1686 342 1832 554 1832 c 0
 787 1832 931 1709 962 1709 c 0
 998 1709 997 1814 1044 1814 c 0
 1057 1814 1067 1809 1067 1780 c 0
 1067 1758 1049 1693 1049 1561 c 0
 1049 1431 1066 1368 1066 1346 c 0
 1066 1320 1063 1307 1039 1307 c 0
 1003 1307 982 1438 900 1542 c 0
 791 1681 640 1760 534 1760 c 0
 403 1760 288 1661 288 1459 c 0
 288 1067 797 1193 1099 941 c 0
 1202 855 1276 729 1276 542 c 0
 1276 405 1233 281 1162 185 c 0
 1079 72 966 -65 672 -65 c 0
 377 -65 195 170 190 170 c 0
 174 170 150 127 121 127 c 0
 104 127 98 144 98 154 c 0
 98 191 113 160 175 581 c 0
 176 592 183 636 214 636 c 0
 245 636 246 607 246 571 c 2
 246 563 l 2
 246 499 251 428 312 288 c 0
 378 138 516 34 722 34 c 0
 988 34 1092 292 1092 446 c 0
 1092 562 1071 652 977 720 c 0
 682 935 108 870 108 1366 c 0
EndSplineSet
EndChar

StartChar: T
Encoding: 84 84 45
Width: 1936
VWidth: 1000
Flags: HW
HStem: -20.4004 91.2002<586.288 828.917 859.601 955.755 1146.75 1384.93> 0 75.5996<632.259 826.218 859.601 1040.48 1143.24 1338.87> 1730.4 84<262.601 1067.2 1128.66 1628.5> 1743.6 85.2002<268.601 1067.2 1141.24 1620.51>
VStem: 869.2 45.6006<154.622 1665.88> 983.2 100.8<129.364 1691.26>
LayerCount: 3
Fore
SplineSet
804.400390625 1743.59960938 m 1x5c
 868 1723.20019531 912.400390625 1701.59960938 912.400390625 1502.40039062 c 2
 914.80078125 280.799804688 l 2
 914.80078125 165.599609375 881.200195312 100.799804688 859.600585938 73.2001953125 c 1
 883.600585938 74.400390625 908.80078125 75.599609375 935.200195312 75.599609375 c 0
 971.200195312 75.599609375 1009.60058594 74.400390625 1042 72 c 1
 994 105.599609375 983.200195312 188.400390625 983.200195312 278.400390625 c 2
 989.200195312 1557.59960938 l 2
 989.200195312 1641.59960938 1002.40039062 1696.79980469 1067.20019531 1743.59960938 c 1
 804.400390625 1743.59960938 l 1x5c
707.200195312 70.7998046875 m 2x8c
 858.400390625 70.7998046875 864.400390625 147.599609375 864.400390625 392.400390625 c 0
 864.400390625 466.799804688 869.200195312 704.400390625 869.200195312 739.200195312 c 2
 869.200195312 1556.40039062 l 2
 869.200195312 1712.40039062 829.600585938 1730.40039062 710.80078125 1730.40039062 c 2
 317.200195312 1730.40039062 l 2
 290.80078125 1730.40039062 281.200195312 1722 271.600585938 1706.40039062 c 2
 79.6005859375 1381.20019531 l 2
 66.400390625 1358.40039062 50.80078125 1345.20019531 41.2001953125 1345.20019531 c 0
 32.80078125 1345.20019531 30.400390625 1352.40039062 30.400390625 1363.20019531 c 0
 30.400390625 1372.79980469 32.80078125 1386 35.2001953125 1398 c 2
 115.600585938 1794 l 2
 119.200195312 1813.20019531 124 1814.40039062 137.200195312 1814.40039062 c 2xac
 1742.80078125 1828.79980469 l 2
 1765.60058594 1828.79980469 1768 1814.40039062 1772.80078125 1779.59960938 c 1
 1841.20019531 1424.40039062 l 2
 1843.60058594 1412.40039062 1846 1400.40039062 1846 1390.79980469 c 0
 1846 1381.20019531 1843.60058594 1375.20019531 1836.40039062 1375.20019531 c 0
 1816 1375.20019531 1788.40039062 1428 1777.60058594 1446 c 2
 1607.20019531 1724.40039062 l 2
 1598.80078125 1738.79980469 1591.60058594 1738.79980469 1578.40039062 1738.79980469 c 2
 1316.80078125 1738.79980469 l 2
 1194.40039062 1738.79980469 1093.60058594 1737.59960938 1092.40039062 1560 c 2
 1084 421.200195312 l 1
 1084 156 1097.20019531 66 1320.40039062 66 c 0
 1362.40039062 66 1385.20019531 62.400390625 1385.20019531 30 c 0
 1385.20019531 3.599609375 1374.40039062 -18 1339.60058594 -18 c 0
 1326.40039062 -18 1153.60058594 0 960.400390625 0 c 0x5c
 863.200195312 0 642.400390625 -20.400390625 631.600585938 -20.400390625 c 0
 599.200195312 -20.400390625 586 -4.7998046875 586 32.400390625 c 0
 586 70.7998046875 630.400390625 70.7998046875 677.200195312 70.7998046875 c 2
 707.200195312 70.7998046875 l 2x8c
EndSplineSet
EndChar

StartChar: U
Encoding: 85 85 46
Width: 565
VWidth: 0
Flags: W
HStem: 606 213<205.285 376.076>
VStem: 184 213<627.285 798.076>
LayerCount: 3
Fore
SplineSet
184 713 m 4
 184 772 232 819 291 819 c 4
 350 819 397 772 397 713 c 4
 397 654 350 606 291 606 c 4
 232 606 184 654 184 713 c 4
EndSplineSet
EndChar

StartChar: V
Encoding: 86 86 47
Width: 565
VWidth: 0
Flags: W
HStem: 606 213<205.285 376.076>
VStem: 184 213<627.285 798.076>
LayerCount: 3
Fore
SplineSet
184 713 m 4
 184 772 232 819 291 819 c 4
 350 819 397 772 397 713 c 4
 397 654 350 606 291 606 c 4
 232 606 184 654 184 713 c 4
EndSplineSet
EndChar

StartChar: W
Encoding: 87 87 48
Width: 565
VWidth: 0
Flags: W
HStem: 606 213<205.285 376.076>
VStem: 184 213<627.285 798.076>
LayerCount: 3
Fore
SplineSet
184 713 m 4
 184 772 232 819 291 819 c 4
 350 819 397 772 397 713 c 4
 397 654 350 606 291 606 c 4
 232 606 184 654 184 713 c 4
EndSplineSet
EndChar

StartChar: X
Encoding: 88 88 49
Width: 565
VWidth: 0
Flags: W
HStem: 606 213<205.285 376.076>
VStem: 184 213<627.285 798.076>
LayerCount: 3
Fore
SplineSet
184 713 m 4
 184 772 232 819 291 819 c 4
 350 819 397 772 397 713 c 4
 397 654 350 606 291 606 c 4
 232 606 184 654 184 713 c 4
EndSplineSet
EndChar

StartChar: Y
Encoding: 89 89 50
Width: 565
VWidth: 0
Flags: W
HStem: 606 213<205.285 376.076>
VStem: 184 213<627.285 798.076>
LayerCount: 3
Fore
SplineSet
184 713 m 4
 184 772 232 819 291 819 c 4
 350 819 397 772 397 713 c 4
 397 654 350 606 291 606 c 4
 232 606 184 654 184 713 c 4
EndSplineSet
EndChar

StartChar: Z
Encoding: 90 90 51
Width: 565
VWidth: 0
Flags: W
HStem: 606 213<205.285 376.076>
VStem: 184 213<627.285 798.076>
LayerCount: 3
Fore
SplineSet
184 713 m 4
 184 772 232 819 291 819 c 4
 350 819 397 772 397 713 c 4
 397 654 350 606 291 606 c 4
 232 606 184 654 184 713 c 4
EndSplineSet
EndChar

